<svg xmlns="http://www.w3.org/2000/svg" xmlns:xlink="http://www.w3.org/1999/xlink" width="1800px" height="900px" viewBox="0 0 1800 900" zoomAndPan="disable">

    <style TYPE="text/css"><![CDATA[
		line
		{
			stroke: rgba(255,255,255,0.125);
			stroke-width: 2px;
		}
		
    ]]></style>
    
	<!-- Lines -->
		<line x1="-300" y1="0" x2="400" y2="700" />
		<line x1="-100" y1="0" x2="600" y2="700" />
		<line x1="100" y1="0" x2="900" y2="800" />
		<line x1="300" y1="0" x2="900" y2="600" />
		<line x1="400" y1="900" x2="700" y2="600" />
		<line x1="200" y1="900" x2="500" y2="600" />
		<line x1="600" y1="900" x2="900" y2="600" />
		<line x1="800" y1="900" x2="900" y2="800" />
		<line x1="1000" y1="900" x2="1100" y2="800" />
		<line x1="1200" y1="900" x2="1300" y2="800" />

		<line x1="2100" y1="0" x2="1300" y2="800" />
		<line x1="1900" y1="0" x2="1100" y2="800" />
		<line x1="1700" y1="0" x2="900" y2="800" />
		<line x1="1500" y1="0" x2="900" y2="600" />
		<line x1="1600" y1="900" x2="1300" y2="600" />
		<line x1="1400" y1="900" x2="1100" y2="600" />
		<line x1="1200" y1="900" x2="900" y2="600" />
		<line x1="1000" y1="900" x2="900" y2="800" />
		<line x1="800" y1="900" x2="500" y2="600" />
		<line x1="600" y1="900" x2="300" y2="600" />

</svg>